<svg width="38" height="35" viewBox="0 0 38 35" fill="none" xmlns="http://www.w3.org/2000/svg">
<path d="M18.977 34.8228L16.2254 32.3558C13.0309 29.4776 10.3899 26.9948 8.30245 24.9073C6.21497 22.8199 4.55448 20.9459 3.32098 19.2854C2.08747 17.6249 1.2256 16.0988 0.73536 14.7072C0.24512 13.3155 0 11.8923 0 10.4374C0 7.46429 0.996293 4.98147 2.98888 2.98888C4.98147 0.996294 7.46429 0 10.4374 0C12.082 0 13.6476 0.347912 15.1342 1.04374C16.6207 1.73956 17.9017 2.72004 18.977 3.98517C20.0524 2.72004 21.3333 1.73956 22.8199 1.04374C24.3064 0.347912 25.872 0 27.5167 0C30.4897 0 32.9726 0.996294 34.9652 2.98888C36.9577 4.98147 37.954 7.46429 37.954 10.4374C37.954 11.8923 37.7089 13.3155 37.2187 14.7072C36.7284 16.0988 35.8666 17.6249 34.6331 19.2854C33.3996 20.9459 31.7391 22.8199 29.6516 24.9073C27.5641 26.9948 24.9232 29.4776 21.7287 32.3558L18.977 34.8228Z" fill="#FF0000"/>
<path d="M18.977 34.7912L16.2254 32.3264C13.0309 29.4509 10.3899 26.9703 8.30245 24.8847C6.21497 22.7991 4.55448 20.9269 3.32098 19.2679C2.08747 17.6089 1.2256 16.0842 0.73536 14.6938C0.24512 13.3034 0 11.8815 0 10.4279C0 7.45751 0.996293 4.97694 2.98888 2.98617C4.98147 0.995389 7.46429 0 10.4374 0C12.082 0 13.6476 0.347596 15.1342 1.04279C16.6207 1.73798 17.9017 2.71757 18.977 3.98155C20.0524 2.71757 21.3333 1.73798 22.8199 1.04279C24.3064 0.347596 25.872 0 27.5167 0C30.4897 0 32.9726 0.995389 34.9652 2.98617C36.9577 4.97694 37.954 7.45751 37.954 10.4279C37.954 11.8815 37.7089 13.3034 37.2187 14.6938C36.7284 16.0842 35.8666 17.6089 34.6331 19.2679C33.3996 20.9269 31.7391 22.7991 29.6516 24.8847C27.5641 26.9703 24.9232 29.4509 21.7287 32.3264L18.977 34.7912ZM18.977 29.6721C22.0133 26.9545 24.512 24.624 26.4729 22.6806C28.4339 20.7373 29.9837 19.0467 31.1223 17.6089C32.2609 16.1711 33.0516 14.8913 33.4944 13.7695C33.9372 12.6478 34.1586 11.5339 34.1586 10.4279C34.1586 8.5319 33.5261 6.95192 32.2609 5.68793C30.9958 4.42395 29.4144 3.79196 27.5167 3.79196C26.0301 3.79196 24.6543 4.21065 23.3892 5.04804C22.124 5.88543 21.2543 6.95192 20.7798 8.24751H17.1742C16.6998 6.95192 15.83 5.88543 14.5649 5.04804C13.2997 4.21065 11.9239 3.79196 10.4374 3.79196C8.53966 3.79196 6.95824 4.42395 5.69311 5.68793C4.42797 6.95192 3.7954 8.5319 3.7954 10.4279C3.7954 11.5339 4.0168 12.6478 4.4596 13.7695C4.9024 14.8913 5.69311 16.1711 6.83173 17.6089C7.97035 19.0467 9.52014 20.7373 11.4811 22.6806C13.4421 24.624 15.9407 26.9545 18.977 29.6721Z" fill="white"/>
</svg>
