<svg width="38" height="36" viewBox="0 0 38 36" fill="none" xmlns="http://www.w3.org/2000/svg">
<path d="M18.977 35.0184L16.2254 32.5536C13.0309 29.678 10.3899 27.1975 8.30245 25.1119C6.21497 23.0263 4.55448 21.154 3.32098 19.4951C2.08747 17.8361 1.2256 16.3114 0.73536 14.921C0.24512 13.5306 0 12.1086 0 10.6551C0 7.68469 0.996293 5.20412 2.98888 3.21334C4.98147 1.22256 7.46429 0.227173 10.4374 0.227173C12.082 0.227173 13.6476 0.574769 15.1342 1.26996C16.6207 1.96515 17.9017 2.94474 18.977 4.20873C20.0524 2.94474 21.3333 1.96515 22.8199 1.26996C24.3064 0.574769 25.872 0.227173 27.5167 0.227173C30.4897 0.227173 32.9726 1.22256 34.9652 3.21334C36.9577 5.20412 37.954 7.68469 37.954 10.6551C37.954 12.1086 37.7089 13.5306 37.2187 14.921C36.7284 16.3114 35.8666 17.8361 34.6331 19.4951C33.3996 21.154 31.7391 23.0263 29.6516 25.1119C27.5641 27.1975 24.9232 29.678 21.7287 32.5536L18.977 35.0184ZM18.977 29.8992C22.0133 27.1817 24.512 24.8512 26.4729 22.9078C28.4339 20.9644 29.9837 19.2739 31.1223 17.8361C32.2609 16.3983 33.0516 15.1185 33.4944 13.9967C33.9372 12.8749 34.1586 11.761 34.1586 10.6551C34.1586 8.75908 33.5261 7.17909 32.2609 5.91511C30.9958 4.65112 29.4144 4.01913 27.5167 4.01913C26.0301 4.01913 24.6543 4.43783 23.3892 5.27522C22.124 6.11261 21.2543 7.17909 20.7798 8.47468H17.1742C16.6998 7.17909 15.83 6.11261 14.5649 5.27522C13.2997 4.43783 11.9239 4.01913 10.4374 4.01913C8.53966 4.01913 6.95824 4.65112 5.69311 5.91511C4.42797 7.17909 3.7954 8.75908 3.7954 10.6551C3.7954 11.761 4.0168 12.8749 4.4596 13.9967C4.9024 15.1185 5.69311 16.3983 6.83173 17.8361C7.97035 19.2739 9.52014 20.9644 11.4811 22.9078C13.4421 24.8512 15.9407 27.1817 18.977 29.8992Z" fill="white"/>
</svg>
