<svg width="44" height="44" viewBox="0 0 44 44" fill="none" xmlns="http://www.w3.org/2000/svg">
<path d="M37.1525 31.3775C37.1525 31.4439 37.1788 31.5075 37.2258 31.5545C37.2727 31.6014 37.3363 31.6278 37.4027 31.6278C37.4691 31.6278 37.5327 31.6014 37.5797 31.5545C37.6266 31.5075 37.653 31.4439 37.653 31.3775C37.653 31.3111 37.6266 31.2475 37.5797 31.2005C37.5327 31.1536 37.4691 31.1273 37.4027 31.1273C37.3363 31.1273 37.2727 31.1536 37.2258 31.2005C37.1788 31.2475 37.1525 31.3111 37.1525 31.3775ZM31.6277 37.0782C31.6277 37.2103 31.6802 37.3369 31.7735 37.4302C31.8669 37.5236 31.9935 37.576 32.1255 37.576C32.2575 37.576 32.3841 37.5236 32.4774 37.4302C32.5708 37.3369 32.6232 37.2103 32.6232 37.0782C32.6232 36.9462 32.5708 36.8196 32.4774 36.7263C32.3841 36.6329 32.2575 36.5805 32.1255 36.5805C31.9935 36.5805 31.8669 36.6329 31.7735 36.7263C31.6802 36.8196 31.6277 36.9462 31.6277 37.0782ZM24.1807 40.0125C24.1807 40.2109 24.2595 40.4011 24.3998 40.5414C24.5401 40.6817 24.7303 40.7605 24.9287 40.7605C25.1271 40.7605 25.3174 40.6817 25.4576 40.5414C25.5979 40.4011 25.6767 40.2109 25.6767 40.0125C25.6767 39.9143 25.6574 39.817 25.6198 39.7263C25.5822 39.6355 25.5271 39.553 25.4576 39.4836C25.3882 39.4141 25.3057 39.359 25.215 39.3214C25.1242 39.2838 25.027 39.2645 24.9287 39.2645C24.8305 39.2645 24.7332 39.2838 24.6425 39.3214C24.5517 39.359 24.4693 39.4141 24.3998 39.4836C24.3303 39.553 24.2752 39.6355 24.2377 39.7263C24.2001 39.817 24.1807 39.9143 24.1807 40.0125ZM16.1645 39.6192C16.1645 39.8833 16.2694 40.1365 16.456 40.3232C16.6427 40.5099 16.8959 40.6148 17.16 40.6148C17.424 40.6148 17.6772 40.5099 17.8639 40.3232C18.0506 40.1365 18.1555 39.8833 18.1555 39.6192C18.1555 39.3552 18.0506 39.102 17.8639 38.9153C17.6772 38.7286 17.424 38.6238 17.16 38.6238C16.8959 38.6238 16.6427 38.7286 16.456 38.9153C16.2694 39.102 16.1645 39.3552 16.1645 39.6192ZM9.05297 35.97C9.05297 36.1336 9.0852 36.2956 9.1478 36.4467C9.21041 36.5979 9.30217 36.7352 9.41785 36.8509C9.53352 36.9666 9.67085 37.0583 9.822 37.1209C9.97314 37.1835 10.1351 37.2157 10.2987 37.2157C10.4623 37.2157 10.6243 37.1835 10.7755 37.1209C10.9266 37.0583 11.0639 36.9666 11.1796 36.8509C11.2953 36.7352 11.387 36.5979 11.4496 36.4467C11.5123 36.2956 11.5445 36.1336 11.5445 35.97C11.5445 35.8064 11.5123 35.6444 11.4496 35.4933C11.387 35.3421 11.2953 35.2048 11.1796 35.0891C11.0639 34.9734 10.9266 34.8817 10.7755 34.8191C10.6243 34.7565 10.4623 34.7242 10.2987 34.7242C10.1351 34.7242 9.97314 34.7565 9.822 34.8191C9.67085 34.8817 9.53352 34.9734 9.41785 35.0891C9.30217 35.2048 9.21041 35.3421 9.1478 35.4933C9.0852 35.6444 9.05297 35.8064 9.05297 35.97ZM4.12772 29.766C4.12772 30.1628 4.28534 30.5433 4.56589 30.8238C4.84645 31.1044 5.22696 31.262 5.62372 31.262C6.02049 31.262 6.401 31.1044 6.68156 30.8238C6.96211 30.5433 7.11972 30.1628 7.11972 29.766C7.11972 29.3692 6.96211 28.9887 6.68156 28.7082C6.401 28.4276 6.02049 28.27 5.62372 28.27C5.22696 28.27 4.84645 28.4276 4.56589 28.7082C4.28534 28.9887 4.12772 29.3692 4.12772 29.766ZM2.27972 22.1485C2.27972 22.3775 2.32482 22.6042 2.41244 22.8157C2.50006 23.0272 2.62848 23.2194 2.79038 23.3813C2.95228 23.5432 3.14448 23.6717 3.35602 23.7593C3.56755 23.8469 3.79426 23.892 4.02322 23.892C4.25218 23.892 4.4789 23.8469 4.69043 23.7593C4.90196 23.6717 5.09417 23.5432 5.25606 23.3813C5.41796 23.2194 5.54639 23.0272 5.63401 22.8157C5.72163 22.6042 5.76672 22.3775 5.76672 22.1485C5.76672 21.9195 5.72163 21.6928 5.63401 21.4813C5.54639 21.2698 5.41796 21.0776 5.25606 20.9157C5.09417 20.7538 4.90196 20.6253 4.69043 20.5377C4.4789 20.4501 4.25218 20.405 4.02322 20.405C3.79426 20.405 3.56755 20.4501 3.35602 20.5377C3.14448 20.6253 2.95228 20.7538 2.79038 20.9157C2.62848 21.0776 2.50006 21.2698 2.41244 21.4813C2.32482 21.6928 2.27972 21.9195 2.27972 22.1485ZM3.80047 14.5805C3.80047 14.8423 3.85204 15.1016 3.95224 15.3435C4.05243 15.5854 4.19929 15.8052 4.38443 15.9903C4.56957 16.1754 4.78936 16.3223 5.03125 16.4225C5.27314 16.5227 5.5324 16.5742 5.79422 16.5742C6.323 16.5742 6.83012 16.3642 7.20402 15.9903C7.57792 15.6164 7.78797 15.1093 7.78797 14.5805C7.78797 14.0517 7.57792 13.5446 7.20402 13.1707C6.83012 12.7968 6.323 12.5867 5.79422 12.5867C5.26545 12.5867 4.75833 12.7968 4.38443 13.1707C4.01053 13.5446 3.80047 14.0517 3.80047 14.5805ZM8.36272 8.47825C8.36272 8.77294 8.42077 9.06474 8.53354 9.33699C8.64631 9.60925 8.8116 9.85662 9.01998 10.065C9.22835 10.2734 9.47573 10.4387 9.74798 10.5514C10.0202 10.6642 10.312 10.7222 10.6067 10.7222C10.9014 10.7222 11.1932 10.6642 11.4655 10.5514C11.7377 10.4387 11.9851 10.2734 12.1935 10.065C12.4018 9.85662 12.5671 9.60925 12.6799 9.33699C12.7927 9.06474 12.8507 8.77294 12.8507 8.47825C12.8507 8.18356 12.7927 7.89176 12.6799 7.61951C12.5671 7.34725 12.4018 7.09988 12.1935 6.8915C11.9851 6.68313 11.7377 6.51784 11.4655 6.40506C11.1932 6.29229 10.9014 6.23425 10.6067 6.23425C10.312 6.23425 10.0202 6.29229 9.74798 6.40506C9.47573 6.51784 9.22835 6.68313 9.01998 6.8915C8.8116 7.09988 8.64631 7.34725 8.53354 7.61951C8.42077 7.89176 8.36272 8.18356 8.36272 8.47825ZM15.0617 4.983C15.0617 5.31019 15.1262 5.63417 15.2514 5.93646C15.3766 6.23874 15.5601 6.5134 15.7915 6.74476C16.0228 6.97611 16.2975 7.15964 16.5998 7.28485C16.9021 7.41006 17.226 7.4745 17.5532 7.4745C17.8804 7.4745 18.2044 7.41006 18.5067 7.28485C18.809 7.15964 19.0836 6.97611 19.315 6.74476C19.5463 6.5134 19.7299 6.23874 19.8551 5.93646C19.9803 5.63417 20.0447 5.31019 20.0447 4.983C20.0447 4.65581 19.9803 4.33183 19.8551 4.02954C19.7299 3.72726 19.5463 3.4526 19.315 3.22124C19.0836 2.98989 18.809 2.80636 18.5067 2.68115C18.2044 2.55594 17.8804 2.4915 17.5532 2.4915C17.226 2.4915 16.9021 2.55594 16.5998 2.68115C16.2975 2.80636 16.0228 2.98989 15.7915 3.22124C15.5601 3.4526 15.3766 3.72726 15.2514 4.02954C15.1262 4.33183 15.0617 4.65581 15.0617 4.983ZM22.5857 4.76575C22.5857 5.49291 22.8746 6.19028 23.3888 6.70446C23.9029 7.21864 24.6003 7.5075 25.3275 7.5075C26.0546 7.5075 26.752 7.21864 27.2662 6.70446C27.7804 6.19028 28.0692 5.49291 28.0692 4.76575C28.0692 4.03859 27.7804 3.34122 27.2662 2.82704C26.752 2.31286 26.0546 2.024 25.3275 2.024C24.6003 2.024 23.9029 2.31286 23.3888 2.82704C22.8746 3.34122 22.5857 4.03859 22.5857 4.76575ZM29.4745 7.865C29.4745 8.6578 29.7894 9.41813 30.35 9.97872C30.9106 10.5393 31.6709 10.8542 32.4637 10.8542C33.2565 10.8542 34.0168 10.5393 34.5774 9.97872C35.138 9.41813 35.453 8.6578 35.453 7.865C35.453 7.0722 35.138 6.31187 34.5774 5.75128C34.0168 5.19069 33.2565 4.87575 32.4637 4.87575C31.6709 4.87575 30.9106 5.19069 30.35 5.75128C29.7894 6.31187 29.4745 7.0722 29.4745 7.865ZM34.3695 13.6868C34.3695 14.1122 34.4533 14.5334 34.6161 14.9265C34.7789 15.3195 35.0175 15.6766 35.3183 15.9774C35.6191 16.2782 35.9762 16.5169 36.3693 16.6797C36.7623 16.8425 37.1836 16.9263 37.609 16.9263C38.0344 16.9263 38.4556 16.8425 38.8487 16.6797C39.2417 16.5169 39.5988 16.2782 39.8996 15.9774C40.2005 15.6766 40.4391 15.3195 40.6019 14.9265C40.7647 14.5334 40.8485 14.1122 40.8485 13.6868C40.8485 13.2613 40.7647 12.8401 40.6019 12.447C40.4391 12.054 40.2005 11.6969 39.8996 11.3961C39.5988 11.0953 39.2417 10.8566 38.8487 10.6938C38.4556 10.531 38.0344 10.4473 37.609 10.4473C37.1836 10.4473 36.7623 10.531 36.3693 10.6938C35.9762 10.8566 35.6191 11.0953 35.3183 11.3961C35.0175 11.6969 34.7789 12.054 34.6161 12.447C34.4533 12.8401 34.3695 13.2613 34.3695 13.6868ZM36.3165 21.2272C36.3165 21.6855 36.4067 22.1393 36.5821 22.5627C36.7575 22.9861 37.0145 23.3708 37.3386 23.6949C37.6627 24.0189 38.0474 24.276 38.4708 24.4514C38.8941 24.6267 39.3479 24.717 39.8062 24.717C40.7318 24.717 41.6194 24.3493 42.2738 23.6949C42.9283 23.0404 43.296 22.1528 43.296 21.2272C43.296 20.3017 42.9283 19.4141 42.2738 18.7596C41.6194 18.1052 40.7318 17.7375 39.8062 17.7375C38.8807 17.7375 37.9931 18.1052 37.3386 18.7596C36.6841 19.4141 36.3165 20.3017 36.3165 21.2272Z" fill="white"/>
</svg>
