<svg width="178" height="39" viewBox="0 0 178 39" fill="none" xmlns="http://www.w3.org/2000/svg">
<path d="M0.135941 30V2.00001H12.9359C15.4959 2.00001 17.6959 2.41334 19.5359 3.24001C21.4026 4.06668 22.8426 5.26668 23.8559 6.84001C24.8693 8.38668 25.3759 10.2267 25.3759 12.36C25.3759 14.4667 24.8693 16.2933 23.8559 17.84C22.8426 19.36 21.4026 20.5333 19.5359 21.36C17.6959 22.16 15.4959 22.56 12.9359 22.56H4.53594L8.05594 19.24V30H0.135941ZM17.4559 30L10.4959 19.8H18.9359L25.9359 30H17.4559ZM8.05594 20.08L4.53594 16.44H12.4559C14.1093 16.44 15.3359 16.08 16.1359 15.36C16.9626 14.64 17.3759 13.64 17.3759 12.36C17.3759 11.0533 16.9626 10.04 16.1359 9.32001C15.3359 8.60001 14.1093 8.24001 12.4559 8.24001H4.53594L8.05594 4.60001V20.08ZM43.5053 7.96001C45.1853 7.96001 46.7053 8.30668 48.0653 9.00001C49.4253 9.66668 50.492 10.7067 51.2653 12.12C52.0653 13.5333 52.4653 15.36 52.4653 17.6V30H44.8653V18.84C44.8653 17.2933 44.5453 16.1733 43.9053 15.48C43.292 14.76 42.4253 14.4 41.3053 14.4C40.5053 14.4 39.772 14.5867 39.1053 14.96C38.4386 15.3067 37.9186 15.8533 37.5453 16.6C37.172 17.3467 36.9853 18.32 36.9853 19.52V30H29.3853V0.320007H36.9853V14.48L35.2253 12.68C36.052 11.1067 37.1853 9.93334 38.6253 9.16001C40.0653 8.36001 41.692 7.96001 43.5053 7.96001ZM60.5663 38.12C59.4196 38.12 58.2596 37.9333 57.0863 37.56C55.9396 37.2133 55.0063 36.7467 54.2862 36.16L56.9263 30.84C57.3796 31.24 57.8996 31.5467 58.4863 31.76C59.0996 32 59.6996 32.12 60.2862 32.12C61.1129 32.12 61.7663 31.9333 62.2463 31.56C62.7263 31.1867 63.1396 30.6 63.4863 29.8L64.4863 27.28L65.0863 26.52L72.4463 8.32001H79.6863L70.3263 30.88C69.5796 32.7467 68.7129 34.2 67.7263 35.24C66.7663 36.3067 65.6863 37.0533 64.4863 37.48C63.3129 37.9067 62.0063 38.12 60.5663 38.12ZM63.5263 30.92L53.9662 8.32001H61.7663L68.8063 25.84L63.5263 30.92ZM91.9169 30.36C89.1435 30.36 86.9835 29.68 85.4369 28.32C83.8902 26.9333 83.1169 24.8533 83.1169 22.08V3.48001H90.7169V22C90.7169 22.7733 90.9302 23.3867 91.3569 23.84C91.7835 24.2667 92.3302 24.48 92.9969 24.48C93.9035 24.48 94.6769 24.2533 95.3169 23.8L97.1969 29.12C96.5569 29.5467 95.7702 29.8533 94.8369 30.04C93.9035 30.2533 92.9302 30.36 91.9169 30.36ZM79.9569 14.8V9.12001H95.6769V14.8H79.9569ZM114.248 7.96001C115.928 7.96001 117.448 8.30668 118.807 9.00001C120.168 9.66668 121.234 10.7067 122.008 12.12C122.808 13.5333 123.208 15.36 123.208 17.6V30H115.608V18.84C115.608 17.2933 115.288 16.1733 114.648 15.48C114.034 14.76 113.168 14.4 112.048 14.4C111.248 14.4 110.514 14.5867 109.848 14.96C109.181 15.3067 108.661 15.8533 108.288 16.6C107.914 17.3467 107.728 18.32 107.728 19.52V30H100.128V0.320007H107.728V14.48L105.968 12.68C106.794 11.1067 107.928 9.93334 109.368 9.16001C110.808 8.36001 112.434 7.96001 114.248 7.96001ZM156.219 7.96001C157.899 7.96001 159.392 8.30668 160.699 9.00001C162.032 9.66668 163.072 10.7067 163.819 12.12C164.592 13.5333 164.979 15.36 164.979 17.6V30H157.379V18.84C157.379 17.2933 157.086 16.1733 156.499 15.48C155.912 14.76 155.112 14.4 154.099 14.4C153.379 14.4 152.726 14.5733 152.139 14.92C151.552 15.2667 151.099 15.8 150.779 16.52C150.459 17.2133 150.299 18.12 150.299 19.24V30H142.699V18.84C142.699 17.2933 142.406 16.1733 141.819 15.48C141.259 14.76 140.459 14.4 139.419 14.4C138.672 14.4 138.006 14.5733 137.419 14.92C136.859 15.2667 136.406 15.8 136.059 16.52C135.739 17.2133 135.579 18.12 135.579 19.24V30H127.979V8.32001H135.219V14.36L133.779 12.64C134.579 11.0933 135.672 9.93334 137.059 9.16001C138.446 8.36001 139.992 7.96001 141.699 7.96001C143.646 7.96001 145.352 8.46668 146.819 9.48001C148.312 10.4667 149.312 12.0133 149.819 14.12L147.339 13.6C148.112 11.84 149.272 10.4667 150.819 9.48001C152.392 8.46668 154.192 7.96001 156.219 7.96001Z" fill="white"/>
<path d="M172.976 30.36C171.696 30.36 170.616 29.9333 169.736 29.08C168.856 28.2267 168.416 27.1467 168.416 25.84C168.416 24.48 168.856 23.4 169.736 22.6C170.616 21.7733 171.696 21.36 172.976 21.36C174.256 21.36 175.336 21.7733 176.216 22.6C177.096 23.4 177.536 24.48 177.536 25.84C177.536 27.1467 177.096 28.2267 176.216 29.08C175.336 29.9333 174.256 30.36 172.976 30.36Z" fill="url(#paint0_linear_16_126)"/>
<defs>
<linearGradient id="paint0_linear_16_126" x1="169.5" y1="24" x2="177" y2="28.5" gradientUnits="userSpaceOnUse">
<stop stop-color="#FF3D00"/>
<stop offset="0.48" stop-color="#DA68ED"/>
<stop offset="1" stop-color="#0038FF"/>
</linearGradient>
</defs>
</svg>
